<svg width="59" height="117" viewBox="0 0 59 117" fill="none" xmlns="http://www.w3.org/2000/svg">
<path d="M1 4C1 2.34315 2.34315 1 4 1H55C56.6569 1 58 2.34315 58 4V113C58 114.657 56.6569 116 55 116H4C2.34315 116 1 114.657 1 113V4Z" fill="black"/>
<path d="M33 10C33 9.72388 33.2238 9.50003 33.5 9.50003C33.7761 9.50003 34 9.72388 34 10C34 10.2762 33.7761 10.5 33.5 10.5C33.2238 10.5 33 10.2762 33 10Z" fill="white"/>
<path d="M31.5 10H25.5M20 116H38.9999M4 116H55C56.6569 116 58 114.657 58 113V4C58 2.34315 56.6569 1 55 1H4C2.34315 1 1 2.34315 1 4V113C1 114.657 2.34315 116 4 116ZM33 10C33 9.72388 33.2238 9.50003 33.5 9.50003C33.7761 9.50003 34 9.72388 34 10C34 10.2762 33.7761 10.5 33.5 10.5C33.2238 10.5 33 10.2762 33 10Z" stroke="white" stroke-linecap="round"/>
<g clip-path="url(#clip0_2_12)" filter="url(#filter0_i_2_12)">
<path d="M37.99 49H28L22 55V69H38L37.99 49ZM27 66H25V64H27V66ZM35 66H33V64H35V66ZM27 62H25V58H27V62ZM31 66H29V62H31V66ZM31 60H29V58H31V60ZM35 62H33V58H35V62Z" fill="white"/>
</g>
<defs>
<filter id="filter0_i_2_12" x="18" y="47" width="24" height="28" filterUnits="userSpaceOnUse" color-interpolation-filters="sRGB">
<feFlood flood-opacity="0" result="BackgroundImageFix"/>
<feBlend mode="normal" in="SourceGraphic" in2="BackgroundImageFix" result="shape"/>
<feColorMatrix in="SourceAlpha" type="matrix" values="0 0 0 0 0 0 0 0 0 0 0 0 0 0 0 0 0 0 127 0" result="hardAlpha"/>
<feOffset dy="4"/>
<feGaussianBlur stdDeviation="2"/>
<feComposite in2="hardAlpha" operator="arithmetic" k2="-1" k3="1"/>
<feColorMatrix type="matrix" values="0 0 0 0 0 0 0 0 0 0 0 0 0 0 0 0 0 0 0.25 0"/>
<feBlend mode="normal" in2="shape" result="effect1_innerShadow_2_12"/>
</filter>
<clipPath id="clip0_2_12">
<rect width="24" height="24" fill="white" transform="translate(18 47)"/>
</clipPath>
</defs>
</svg>
